<svg xmlns="http://www.w3.org/2000/svg" width="18" height="19" viewBox="0 0 18 19">
  <g id="icon-calendar-date" transform="translate(-3 -2)">
    <path id="Path_1082" data-name="Path 1082" d="M5,4H19a2,2,0,0,1,2,2V19a2,2,0,0,1-2,2H5a2,2,0,0,1-2-2V6A2.006,2.006,0,0,1,5,4ZM5,9V19H19V9Z" fill="#005380"/>
    <path id="Path_1083" data-name="Path 1083" d="M13,13h3v3H13ZM7,2A1,1,0,0,1,8,3V6A1,1,0,0,1,6,6V3A1,1,0,0,1,7,2ZM17,2a1,1,0,0,1,1,1V6a1,1,0,0,1-2,0V3A1,1,0,0,1,17,2Z" fill="#005380"/>
  </g>
</svg>
