<svg xmlns="http://www.w3.org/2000/svg" viewBox="0 0 200 200"><defs><style>.cls-1{fill:#979dc4;opacity:0;}</style></defs><title>Icon_Set</title><g id="Layer_2" data-name="Layer 2"><rect class="cls-1" width="200" height="200"/></g><g id="Layer_1" data-name="Layer 1"><path d="M180.63,98l-6.9,1.17,6.9-1.17a31,31,0,0,0-30.53-25.8c-.79,0-1.58,0-2.38.09a74.72,74.72,0,0,0-28.17-14,41.54,41.54,0,1,0-71,12.88,82.85,82.85,0,0,0-15.38,14,71.91,71.91,0,0,0-9.48,14.32,66.44,66.44,0,0,0-6.11,18.91c-.11.68-.32,2-.5,3.9s-.32,4.23-.32,7a73.68,73.68,0,0,0,2.87,20.57,61.61,61.61,0,0,0,34.59,39.57A77.77,77.77,0,0,0,64,193c2.92.85,5.46,1.43,7.35,1.86,1.49.35,4,.86,7.12,1.29a85.87,85.87,0,0,0,11.51.77,82.4,82.4,0,0,0,29.42-5.34q2.16-.82,4.34-1.8c1.16-.41,2.29-.82,3.35-1.26a77.2,77.2,0,0,0,7.74-3.7c2.12-1.17,3.78-2.21,4.79-2.84.45-.28,1.25-.79,2.29-1.5a81.74,81.74,0,0,0,16.43-14.95,63.68,63.68,0,0,0,8.44-13.11,54.13,54.13,0,0,0,3.11-8.3c.4-1,.79-2,1.14-3.09a57.53,57.53,0,0,0,3-18.16A31,31,0,0,0,180.63,98ZM66,168.91a36.42,36.42,0,0,0,6.94,12c-1.5-.35-3.17-.77-5-1.3a58.5,58.5,0,0,1-12.21-5,47.35,47.35,0,0,1-12.56-10.12A48.24,48.24,0,0,1,33.1,146a59.29,59.29,0,0,1-2.31-16.64c0-2.26.12-4.2.26-5.67s.3-2.49.37-3a52.35,52.35,0,0,1,5.8-16.78A62,62,0,0,1,51.08,87a70.51,70.51,0,0,1,6.28-4.86c.88-.61,1.67-1.12,2.33-1.53l1.61-1c.64-.38,1.31-.76,2-1.15a7,7,0,0,0,.77-11.76,27.59,27.59,0,0,1-8.14-9.55,27.54,27.54,0,0,1-.89-23.29A27.64,27.64,0,0,1,65,21.75a27.55,27.55,0,0,1,26.07-2.53,27.64,27.64,0,0,1,12.11,10,27.52,27.52,0,0,1,.24,30.37,7,7,0,0,0,4.88,10.75,64.46,64.46,0,0,1,23.38,7.94A30.93,30.93,0,0,0,119.31,107l-.43.24a44.44,44.44,0,0,0-3.95,2.61l-1.26,1c-.32.25-.56.44-.58.44a28.28,28.28,0,0,1-8.48,4c-2.37.73-4.93,1.31-7.62,1.9a82.67,82.67,0,0,0-12.86,3.48,34.11,34.11,0,0,0-6.61,3.42,29,29,0,0,0-6,5.46,33.94,33.94,0,0,0-6.11,11.5,43.52,43.52,0,0,0-1.93,13A44.68,44.68,0,0,0,66,168.91Zm91.61-34.74a36.69,36.69,0,0,1-1,5.45c-.19.47-.38.93-.58,1.39-3.83,8.65-10.24,16.58-17.76,23.06a84.23,84.23,0,0,1-19.87,12.76L118,177a42.9,42.9,0,0,1-13.27,2.2,36,36,0,0,1-8.19-.93,38.94,38.94,0,0,1-6.43-1.94,18.32,18.32,0,0,1-6.15-4.12,21.78,21.78,0,0,1-4.75-8,30.76,30.76,0,0,1-1.7-10.18,29.65,29.65,0,0,1,1.29-8.77,19.78,19.78,0,0,1,3.53-6.75A14.34,14.34,0,0,1,85,136a21.81,21.81,0,0,1,6.3-3c3.77-1.21,8.49-2,13.68-3.28a58.73,58.73,0,0,0,8.08-2.58,39.09,39.09,0,0,0,8.24-4.53l-4.1-5.67,4.11,5.67c.38-.28.66-.51,1-.75.54-.42,1.15-.89,1.89-1.4l.11-.08a30.39,30.39,0,0,0,5.9,6.58,31,31,0,0,0,25.09,6.79c.81-.14,1.59-.31,2.37-.5C157.62,133.58,157.6,133.88,157.57,134.17Zm5.54-20A16.91,16.91,0,0,1,152.92,120a17.67,17.67,0,0,1-2.88.24,17,17,0,0,1-16.73-14.15,17.67,17.67,0,0,1-.24-2.88,17,17,0,0,1,14.15-16.73,16.63,16.63,0,0,1,2.88-.24,17,17,0,0,1,16.73,14.15,16.63,16.63,0,0,1,.24,2.88A16.9,16.9,0,0,1,163.11,114.13Z"/></g></svg>