<svg xmlns="http://www.w3.org/2000/svg" viewBox="0 0 200 200"><defs><style>.cls-1{fill:#979dc4;opacity:0;}</style></defs><title>Icon_Set</title><g id="Layer_2" data-name="Layer 2"><rect class="cls-1" width="200" height="200"/></g><g id="Layer_1" data-name="Layer 1"><path d="M102,57.57a6.82,6.82,0,1,0-9-3.53A6.82,6.82,0,0,0,102,57.57Z"/><path d="M47.6,94.43a6.82,6.82,0,1,0,9,3.53A6.8,6.8,0,0,0,47.6,94.43Z"/><path d="M97,143.43a6.82,6.82,0,1,0,9,3.53A6.82,6.82,0,0,0,97,143.43Z"/><path d="M154.93,97.6a6.82,6.82,0,1,0-3.53,9A6.8,6.8,0,0,0,154.93,97.6Z"/><path d="M100,23.5A76.5,76.5,0,1,0,176.5,100,76.5,76.5,0,0,0,100,23.5Zm0,139A62.5,62.5,0,1,1,162.5,100,62.57,62.57,0,0,1,100,162.5Z"/><path d="M127,104l-17.57-6.67,17-29.75a7,7,0,0,0-12.15-7L93.43,97a6.92,6.92,0,0,0-.67,1.63,7,7,0,0,0,4.11,8.85L122,117A7,7,0,1,0,127,104Z"/></g></svg>