<svg xmlns="http://www.w3.org/2000/svg" viewBox="0 0 200 200"><defs><style>.cls-1{fill:#979dc4;opacity:0;}</style></defs><title>Icon_Set</title><g id="Layer_2" data-name="Layer 2"><rect class="cls-1" width="200" height="200"/></g><g id="Layer_1" data-name="Layer 1"><path d="M186.89,76.78H178.3A8.05,8.05,0,0,0,172.72,79l-8.54-24.31c-2.63-8.92-19.5-33.1-63.78-33.1-22.82,0-38.21,7.43-47.11,13.66C46,40.39,38.14,48.59,36.57,54.86L27.48,79.22a8.08,8.08,0,0,0-5.78-2.44H13.11a8.12,8.12,0,0,0,0,16.23H21.7c.22,0,.43,0,.65,0l-.1.25a7,7,0,0,0-.44,2.44V142c0,.34,0,.67.05,1v21.89a13.54,13.54,0,0,0,13.52,13.52H49A13.54,13.54,0,0,0,62.5,164.86v-9.92h75.36v9.92a13.54,13.54,0,0,0,13.52,13.52H165a13.54,13.54,0,0,0,13.52-13.52V142.75a6,6,0,0,0-.36-2v-45a7,7,0,0,0-.39-2.31l-.14-.38q.34,0,.69,0h8.59a8.12,8.12,0,0,0,0-16.23ZM35.81,140.94v-44l.12-.32a352.27,352.27,0,0,0,64.52,6.63l3.34,0a352.69,352.69,0,0,0,59.64-5.1,4.1,4.1,0,0,0,.71-.18v43Zm14-81.66a7.92,7.92,0,0,0,.29-1c1.54-3.82,16.32-22.68,50.25-22.68,36.06,0,49.06,18.47,50.35,23a4.74,4.74,0,0,0,.15.5l9.93,28.29a341.06,341.06,0,0,1-60.28,4.8,340.23,340.23,0,0,1-60.72-6.08Zm.64,105.58A1.54,1.54,0,0,1,49,166.38H35.38a1.55,1.55,0,0,1-1.52-1.52v-10c.31,0,.62,0,.93,0H50.5ZM165,166.38h-13.6a1.55,1.55,0,0,1-1.52-1.52v-9.92h15.3a11.9,11.9,0,0,0,1.34-.07v10A1.54,1.54,0,0,1,165,166.38Z"/><path d="M46.14,108.33c-3.65,2.71-3.48,10.74,0,15.27,6.7,8.76,24.73,3.2,25.77-1.91C73.12,115.76,52.83,103.36,46.14,108.33Z"/><path d="M153.06,108.33c-6.69-5-27,7.43-25.77,13.36,1,5.11,19.07,10.67,25.77,1.91C156.54,119.07,156.71,111,153.06,108.33Z"/></g></svg>