<svg xmlns="http://www.w3.org/2000/svg" viewBox="0 0 200 200"><defs><style>.cls-1{fill:#979dc4;opacity:0;}</style></defs><title>Icon_Set</title><g id="Layer_2" data-name="Layer 2"><rect class="cls-1" width="200" height="200"/></g><g id="Layer_1" data-name="Layer 1"><rect x="51.89" y="182.41" width="98" height="14" rx="5.5"/><path d="M184.63,84.62h-14.5a10.55,10.55,0,0,0-10.52-10H40.17a10.56,10.56,0,0,0-10.53,10H15.15a9,9,0,0,0,0,18H29.61v33.93a34.9,34.9,0,0,0,34.87,34.86H135.3a34.9,34.9,0,0,0,34.86-34.86V102.62h14.47a9,9,0,0,0,0-18Zm-28.47,51.93a20.89,20.89,0,0,1-20.86,20.86H64.48a20.89,20.89,0,0,1-20.87-20.86V88.63H156.16Z"/><path d="M96.46,39.31c2.17.78,3.89,1.39,5.69,3.42.83.94,2.77,3.12,2.74,5.61-.06,4.34-6.14,7.55-6.24,7.6a5,5,0,0,0,2.24,9.47,4.94,4.94,0,0,0,2.23-.53c1.19-.59,11.63-6.11,11.77-16.4.08-6.38-3.94-10.91-5.27-12.39a21.47,21.47,0,0,0-9.78-6.19c-2.23-.8-3-1.14-3.8-2.27-2-3-.47-7.46-.46-7.49,1.65-4.46,6.45-5.86,6.66-5.91a5,5,0,0,0-2.7-9.63c-1.66.46-10.07,3.22-13.34,12.08-.35.94-3.24,9.37,1.53,16.51C90.36,37.12,93.74,38.33,96.46,39.31Z"/><path d="M67.46,39.31c2.17.78,3.89,1.39,5.69,3.42.83.94,2.77,3.12,2.74,5.61-.06,4.34-6.14,7.55-6.24,7.6a5,5,0,0,0,2.24,9.47,4.94,4.94,0,0,0,2.23-.53c1.19-.59,11.63-6.11,11.77-16.4C86,42.1,82,37.57,80.62,36.09a21.47,21.47,0,0,0-9.78-6.19c-2.23-.8-3-1.14-3.8-2.27-2-3-.47-7.46-.46-7.49,1.65-4.46,6.45-5.86,6.66-5.91a5,5,0,0,0-2.7-9.63c-1.66.46-10.07,3.22-13.34,12.08-.35.94-3.24,9.37,1.53,16.51C61.36,37.12,64.74,38.33,67.46,39.31Z"/><path d="M125.46,39.31c2.17.78,3.89,1.39,5.69,3.42.83.94,2.77,3.12,2.74,5.61-.06,4.34-6.14,7.55-6.24,7.6a5,5,0,0,0,2.24,9.47,4.94,4.94,0,0,0,2.23-.53c1.19-.59,11.63-6.11,11.77-16.4.08-6.38-3.94-10.91-5.27-12.39a21.47,21.47,0,0,0-9.78-6.19c-2.23-.8-3-1.14-3.8-2.27-2-3-.47-7.46-.46-7.49,1.65-4.46,6.45-5.86,6.66-5.91a5,5,0,0,0-2.7-9.63c-1.66.46-10.07,3.22-13.34,12.08-.35.94-3.24,9.37,1.53,16.51C119.36,37.12,122.74,38.33,125.46,39.31Z"/></g></svg>