<svg xmlns="http://www.w3.org/2000/svg" viewBox="0 0 200 200"><defs><style>.cls-1{fill:#979dc4;opacity:0;}</style></defs><title>Icon_Set</title><g id="Layer_2" data-name="Layer 2"><rect class="cls-1" width="200" height="200"/></g><g id="Layer_1" data-name="Layer 1"><path d="M92,39.31C91.41,23.73,81.43,2,66.51,2c-6.8,0-13.32,4.66-18.38,13.12A52.3,52.3,0,0,0,41,39.36C40.53,56.58,50.82,69,56,74.13,55.69,94.3,54.7,113.6,53,131.54l0,.14A148.89,148.89,0,0,0,55.1,175c2.83,14.29,5.57,22,11.91,22s9.07-7.74,11.9-22A150.91,150.91,0,0,0,81,131.21V131C79.34,113.14,78.35,94,78,74,83.43,68.34,92.64,56.08,92,39.31ZM69.53,68.4A5,5,0,0,0,68,72.07c.27,21,1.29,41.11,3,59.89v.16A141,141,0,0,1,69.1,173c-.8,4-1.5,7-2.09,9.12-.6-2.15-1.3-5.09-2.1-9.12A138.87,138.87,0,0,1,63,132.61l0-.15c1.75-18.85,2.77-39.17,3-60.4a5,5,0,0,0-1.67-3.79C61.11,65.38,50.58,54.76,51,39.64,51.37,26.72,59.62,12,66.51,12s15,14.75,15.5,27.69C82.58,54.6,72.6,65.44,69.53,68.4Z"/><path d="M154,4.5a5,5,0,0,0-5,5V59a7,7,0,0,1-7,7h-.87a5,5,0,0,0-5,5.1c.4,19.76,1.37,38.84,2.88,56.7l0,.18a166.69,166.69,0,0,1-1.95,44.6c-.79,4.3-1.48,7.49-2.08,9.84-.6-2.35-1.3-5.54-2.08-9.84a163.89,163.89,0,0,1-2-44.07l0-.16c1.54-17.95,2.52-37.22,2.89-57.26a5,5,0,0,0-5-5.09H127a7,7,0,0,1-7-7V8.5a5,5,0,0,0-10,0V59a17,17,0,0,0,13.77,16.69c-.43,18.1-1.35,35.5-2.75,51.8l0,.16a174,174,0,0,0,2.08,46.73C126,190,128.58,198,135,198s9.06-8,11.92-23.62A176.76,176.76,0,0,0,149,127.13V127c-1.38-16.28-2.3-33.57-2.75-51.49A17,17,0,0,0,159,59V9.5A5,5,0,0,0,154,4.5Z"/><path d="M128,52.5a3.5,3.5,0,0,0,3.5-3.5V7a3.5,3.5,0,0,0-7,0V49A3.5,3.5,0,0,0,128,52.5Z"/><path d="M141,52.5a3.5,3.5,0,0,0,3.5-3.5V7a3.5,3.5,0,0,0-7,0V49A3.5,3.5,0,0,0,141,52.5Z"/></g></svg>