<svg xmlns="http://www.w3.org/2000/svg" viewBox="0 0 200 200"><defs><style>.cls-1{fill:#979dc4;opacity:0;}</style></defs><title>Icon_Set</title><g id="Layer_2" data-name="Layer 2"><rect class="cls-1" width="200" height="200"/></g><g id="Layer_1" data-name="Layer 1"><path d="M176.13,24.07a33.75,33.75,0,0,0-47.58-.1L26.76,125.31c-4.89,4.87-17.07,62.48-17.07,62.48s59.65-9.93,64.54-14.8L176,71.65A33.75,33.75,0,0,0,176.13,24.07ZM155.79,74.86,125.18,44.25l4.6-4.57,30.6,30.61ZM72.24,158l-30.61-30.6L118.1,51.31l30.6,30.6Zm-37-22.87,29.13,29.14c-7.07,2.19-22.72,5.52-39.08,8.55C28.94,157,32.83,141.87,35.23,135.17Zm132.33-72-.09.08-30.61-30.6.16-.16a21.64,21.64,0,0,1,30.54,30.68Z"/><path d="M119.61,66.4a5,5,0,0,0-7.07,0L54.86,124.07a5,5,0,1,0,7.07,7.07l57.68-57.67A5,5,0,0,0,119.61,66.4Z"/></g></svg>