<svg xmlns="http://www.w3.org/2000/svg" viewBox="0 0 200 200"><defs><style>.cls-1{fill:#979dc4;opacity:0;}</style></defs><title>Icon_Set</title><g id="Layer_2" data-name="Layer 2"><rect class="cls-1" width="200" height="200"/></g><g id="Layer_1" data-name="Layer 1"><path d="M179.4,85.45c-2.92-3.32-6.07-4.13-10.05-5.16A104.78,104.78,0,0,1,158,76.78c-5.77-2.12-7.22-3.14-7.78-4.19a5.84,5.84,0,0,1-.48-3.32,31.74,31.74,0,1,0-41.47-42.42,71.14,71.14,0,0,0-20-5.36,82.49,82.49,0,0,0-9.83-.64c-11.46,0-21.61,2.88-30.18,8.56-4,2.63-23.49,16.6-17.69,33,2.49,7,8.89,11.09,14.06,12.55a20.18,20.18,0,0,0,5.5.77c5.87,0,10.55-2.52,15.5-5.18.87-.47,1.81-1,2.82-1.5l1-.52c-.9,1.15-1.76,2.33-2.56,3.53a48,48,0,0,0-7.19,16.25,36,36,0,0,0-1,7.84,34.09,34.09,0,0,0,.33,4.55l-.12,0c-2.26,7.86-4.31,10.2-5,10.81A27.91,27.91,0,0,1,51,109c-3.45-3.13-8.17-7.42-15.69-8S17.6,104.19,14,112.31c-5.89,13.18,9,29.45,21,36.29,3.2,1.83,11.31,6.48,21.54,6.48a33.1,33.1,0,0,0,10.82-1.82C78,149.57,86.18,140.83,90,129.57a47.7,47.7,0,0,1,7.6,3l1.07.61,1.16.66c-.74.72-1.5,1.44-2.14,2-6.46,6.1-16.22,15.31-16.93,30.23a40.23,40.23,0,0,0,.53,8.59c1.66,9.51,6.64,13.73,10.51,15.6A17.29,17.29,0,0,0,99.37,192c7.78,0,16.31-4.79,25.34-14.23a99.49,99.49,0,0,0,18.5-27.54c3.38-7.58,6-13.56,5.26-22A37.62,37.62,0,0,0,144,113.78a52.91,52.91,0,0,0,16.57,2.79,41.24,41.24,0,0,0,4.83-.27c7.48-.9,13-3.79,16-8.36C185.58,101.57,184.69,91.48,179.4,85.45ZM63.06,141c-9.52,3.3-18.33-1.75-21.64-3.65-10.53-6-17.06-16.4-15.58-19.71.83-1.87,4.8-3.91,8.46-3.62,2.88.22,4.93,1.91,8,4.66s7.41,6.74,13.51,5.82c4.49-.68,7.77-3.59,10.22-7.33a27.16,27.16,0,0,0,9.68,7.74c.51.24.94.4,1.31.55l.6.23C75,133,69.67,138.69,63.06,141Zm69.19,4.33C124.15,163.45,108.08,180,99.37,180a5.32,5.32,0,0,1-2.35-.5c-4.67-2.25-4.32-11.77-4.27-12.81.88-18.43,23.09-24.82,21.35-35.23-.65-3.88-5.1-6.18-10.52-9.29-5.84-3.35-18.44-6.37-21.23-7.49-1-.41-1.35-.52-1.57-.62-6.9-3.24-10-11.52-10-17.87a24.88,24.88,0,0,1,.67-5.29,35.22,35.22,0,0,1,5.42-12.1C83.41,69,94.27,61,102.18,56.1,95,51.45,89.28,50.19,85,50.19a22.21,22.21,0,0,0-3.09.22c-5.11.74-10.07,3.33-19,8-5.85,3.06-9.28,5.32-12.76,5.32a8,8,0,0,1-2.24-.32c-.24-.06-4.73-1.4-6-5-2.21-6.25,6.86-14.93,13-19C63,34,71.78,32.85,78.44,32.85a71,71,0,0,1,8.45.56A62,62,0,0,1,118.55,47a19.84,19.84,0,1,1,9.82,10.85,23.62,23.62,0,0,1-3.14,9.35c-.41.68-7.49,9.61-12.42,16.36A24.92,24.92,0,0,0,108,98.19c13.55,5.52,27.26,17.66,28.52,31.1C137,134.61,135.29,138.48,132.25,145.3Zm39.12-44c-.74,1.13-3.09,2.52-7.45,3-8.06,1-20.55-1.55-28.94-9.36a30.64,30.64,0,0,1-7.48-11c1.56-2,3.06-4,4.27-5.55a59.71,59.71,0,0,0,3.71-5c.31-.51.61-1,.89-1.56h.68l.68,0a16.58,16.58,0,0,0,1.86,6.34c2.56,4.81,6.8,7.08,14.23,9.81a116.69,116.69,0,0,0,12.54,3.87c3.28.85,3.61,1,4,1.46C172.08,95.31,172.6,99.48,171.37,101.34Z"/></g></svg>