<svg xmlns="http://www.w3.org/2000/svg" viewBox="0 0 200 200"><defs><style>.cls-1{fill:#979dc4;opacity:0;}</style></defs><title>Icon_Set</title><g id="Layer_2" data-name="Layer 2"><rect class="cls-1" width="200" height="200"/></g><g id="Layer_1" data-name="Layer 1"><path d="M101.39,170.57a7,7,0,0,1-5-2L32,104.06A44.84,44.84,0,0,1,95.4,40.64l6,6,6-6a44.85,44.85,0,0,1,63.43,63.42l-64.46,64.46A7,7,0,0,1,101.39,170.57Zm-37.7-129A30.81,30.81,0,0,0,41.88,94.16l59.51,59.51L160.9,94.16a30.85,30.85,0,0,0-43.63-43.63L106.34,61.47a7,7,0,0,1-9.9,0L85.51,50.53A30.67,30.67,0,0,0,63.69,41.54Z"/></g></svg>