<svg xmlns="http://www.w3.org/2000/svg" viewBox="0 0 200 200"><defs><style>.cls-1{fill:#979dc4;opacity:0;}</style></defs><title>Icon_Set</title><g id="Layer_2" data-name="Layer 2"><rect class="cls-1" width="200" height="200"/></g><g id="Layer_1" data-name="Layer 1"><path d="M131.84,144.8a6.5,6.5,0,1,0-9.06,1.57A6.5,6.5,0,0,0,131.84,144.8Z"/><path d="M132.73,154.82a6.51,6.51,0,1,0,1.57,9.06A6.51,6.51,0,0,0,132.73,154.82Z"/><path d="M141.58,142.26A6.5,6.5,0,1,0,140,133.2,6.5,6.5,0,0,0,141.58,142.26Z"/><path d="M150.57,150a6.51,6.51,0,1,0,1.57,9.06A6.51,6.51,0,0,0,150.57,150Z"/><path d="M164.48,110.78h0c-.57-.4-1.15-.79-1.78-1.19-.39-.32-.75-.6-1.12-.85L131.15,87.3c7.29-5.21,16.76-14.31,21.24-28.42,1.15-3.63,3.75-11.82,2.45-21.55a20.76,20.76,0,0,1,9.91-1.1c7.39,1,16.24,6.25,18.86,14.52,2.92,9.2-2.5,20.89-13.18,28.42a5.5,5.5,0,1,0,6.33,9c14.79-10.42,21.76-26.8,17.33-40.74C190.49,36.08,179,27,166.17,25.32a31.36,31.36,0,0,0-14.33,1.42C145,11.46,127.17-1.81,108.42,2,94.71,4.77,80.18,16.64,80.62,31,81.06,45,95.49,56.6,108.7,58.59s22.84-5.42,31.35-12c1.4-1.08,2.78-2.14,4.14-3.14a42.46,42.46,0,0,1-2.28,12.08c-4.28,13.47-14.41,21.33-20.4,25L82.31,52.9l-.4-.27c-.18-.14-.37-.27-.56-.4A47.2,47.2,0,0,0,27,129.4a47.48,47.48,0,0,0,49.46,3l14.17,10A47.48,47.48,0,0,0,110.12,188a47.2,47.2,0,0,0,54.36-77.17ZM133.34,37.9c-7.75,6-14.43,11.11-23,9.81C99.88,46.14,91.83,37.38,91.62,30.6c-.26-8.18,9.8-16,19-17.83a22,22,0,0,1,4.33-.43c11.75,0,22.76,9.31,27,19.3C138.92,33.61,136.07,35.8,133.34,37.9Zm31.1,130.58a33.2,33.2,0,0,1-59.29-27.43,7,7,0,0,0-2.74-7.47L80.79,118.35a7,7,0,0,0-8-.07A33.2,33.2,0,0,1,27,71.69a33.2,33.2,0,0,1,46.27-8l.52.38a2.48,2.48,0,0,0,.26.19l.32.2,79.12,55.73c.18.13.35.27.51.41a8.44,8.44,0,0,0,.83.61c.53.32,1,.66,1.56,1a33.2,33.2,0,0,1,8,46.26Z"/><path d="M68.62,91.78l-8.8-6.19,6.2-8.8a3,3,0,0,0-.72-4.18l-3.54-2.48a3,3,0,0,0-4.18.72l-6.19,8.8-8.8-6.2a3,3,0,0,0-4.18.73l-2.48,3.53a3,3,0,0,0,.72,4.18l8.8,6.19-6.2,8.8a3,3,0,0,0,.73,4.18l3.53,2.48a3,3,0,0,0,4.18-.72L53.88,94l8.8,6.2a3,3,0,0,0,4.18-.73L69.34,96A3,3,0,0,0,68.62,91.78Z"/></g></svg>