<svg xmlns="http://www.w3.org/2000/svg" viewBox="0 0 200 200"><defs><style>.cls-1{fill:#979dc4;opacity:0;}</style></defs><title>Icon_Set</title><g id="Layer_2" data-name="Layer 2"><rect class="cls-1" width="200" height="200"/></g><g id="Layer_1" data-name="Layer 1"><path d="M185.59,77.39c-5.88-5.83-12.83-12.18-20-18.34V29.12a18.65,18.65,0,0,0-18.63-18.63h-2.11a18.65,18.65,0,0,0-18.62,18.63V30c-10.8-6.28-19.6-9.44-26.32-9.44C87.24,20.58,67.16,31.84,40.2,54,30.93,61.67,21.7,70,14.2,77.39,1.39,90.08,1.39,92.44,1.39,94.92a7,7,0,0,0,7,7H37.64v58.77c0,9.22,8.86,16.72,19.75,16.72h85c10.89,0,19.75-7.5,19.75-16.72V101.92h29.26a7,7,0,0,0,7-7C198.39,92.44,198.39,90.08,185.59,77.39ZM138.21,29.12a6.63,6.63,0,0,1,6.62-6.63h2.11a6.64,6.64,0,0,1,6.63,6.63v20q-8.15-6.45-15.36-11.46ZM107.57,163.41H92.21V138.12a6.63,6.63,0,0,1,6.62-6.63h2.11a6.64,6.64,0,0,1,6.63,6.63Zm40.56-2.72c0,.7-2,2.72-5.75,2.72H119.57V138.12a18.65,18.65,0,0,0-18.63-18.63H98.83a18.65,18.65,0,0,0-18.62,18.63v25.29H57.39c-3.77,0-5.75-2-5.75-2.72v-66A204.19,204.19,0,0,1,73,74.2C92.44,57.88,99.18,57.41,99.89,57.41s7.47.47,26.88,16.79a201.22,201.22,0,0,1,21.36,20.47Zm12.42-72.77a60.77,60.77,0,0,0-6.88-7.9c-4.63-4.74-10.26-10-15.85-14.81-6.28-5.39-25.37-21.8-37.93-21.8-3.1,0-12.53,0-37.91,21.8C56.38,70,50.75,75.28,46.12,80a61.37,61.37,0,0,0-6.9,7.9H23.45C30.18,81.22,40.23,72,51.67,62.74,84,36.61,96.74,34.58,99.89,34.58s16,2,48.24,28.16c11.44,9.26,21.48,18.48,28.21,25.18Z"/><circle cx="99.89" cy="90.41" r="14"/></g></svg>