<svg xmlns="http://www.w3.org/2000/svg" viewBox="0 0 200 200"><defs><style>.cls-1{fill:#979dc4;opacity:0;}</style></defs><title>Icon_Set</title><g id="Layer_2" data-name="Layer 2"><rect class="cls-1" width="200" height="200"/></g><g id="Layer_1" data-name="Layer 1"><rect x="41.19" y="113.32" width="35.4" height="30.68" rx="6.89"/><path d="M164.16,53.26H125V42.39a19.83,19.83,0,0,0-19.77-19.77H94.73A19.82,19.82,0,0,0,75,42.39V53.26H35.84A30.45,30.45,0,0,0,5.41,83.68V146a30.46,30.46,0,0,0,30.43,30.42H164.16A30.46,30.46,0,0,0,194.59,146V83.68A30.45,30.45,0,0,0,164.16,53.26ZM89,42.39a5.84,5.84,0,0,1,5.77-5.77h10.54A5.84,5.84,0,0,1,111,42.39V65a5.84,5.84,0,0,1-5.77,5.77H94.73A5.84,5.84,0,0,1,89,65ZM180.59,146a16.45,16.45,0,0,1-16.43,16.42H35.84A16.45,16.45,0,0,1,19.41,146V83.68A16.44,16.44,0,0,1,35.84,67.26H75.11A19.83,19.83,0,0,0,94.73,84.72h10.54a19.83,19.83,0,0,0,19.62-17.46h39.27a16.44,16.44,0,0,1,16.43,16.42Z"/><rect x="99.53" y="101.69" width="58.34" height="10.35" rx="5.18"/><rect x="99.53" y="120.51" width="58.34" height="10.35" rx="5.18"/><circle cx="58.89" cy="97.41" r="13"/></g></svg>