<svg xmlns="http://www.w3.org/2000/svg" viewBox="0 0 200 200"><defs><style>.cls-1{fill:#979dc4;opacity:0;}</style></defs><title>Icon_Set</title><g id="Layer_2" data-name="Layer 2"><rect class="cls-1" width="200" height="200"/></g><g id="Layer_1" data-name="Layer 1"><path d="M160.89,17.5h-127a19,19,0,0,0-19,19v127a19,19,0,0,0,19,19h127a19,19,0,0,0,19-19V36.5A19,19,0,0,0,160.89,17.5Zm-132,19a5,5,0,0,1,5-5h127a5,5,0,0,1,5,5v33h-137Zm132,132h-127a5.07,5.07,0,0,1-5-5v-80h137v80A5.07,5.07,0,0,1,160.89,168.5Z"/><path d="M96.77,96.13a12.56,12.56,0,0,1-8.67,5.74c-7.55,1.58-4.35,13.15,3.19,11.57.66-.14,1.31-.31,1.94-.5-2,14-2.48,28.13-2.83,42.25-.19,7.72,11.81,7.72,12,0,.46-18.28,1-36.59,5.34-54.44C109.36,94.11,100.44,90.34,96.77,96.13Z"/><path d="M75.06,47.28a14.92,14.92,0,0,0-4.7-.55c-1.58.08-3.13.69-4.71.43-2.51-.41-3.21-3-.94-4.28,3.51-2,7.41-.2,9.87,2.7,2.92,3.44,7.85-1.53,5-4.95a15.13,15.13,0,0,0-14-5.37c-6,1.11-10.85,6.32-8.78,12.69,1.15,3.54,4.32,5.56,7.87,6.12,3.26.52,6.37-1.09,9.54.3a3.42,3.42,0,0,1,2.34,2.78c.06,1.46-1.11,1.81-2.34,2-2.92.56-5.9-.69-8.36-2.16-3.87-2.32-7.39,3.73-3.53,6,5.25,3.16,13.51,5.21,18.57.53a9,9,0,0,0,1.74-10.33A11.47,11.47,0,0,0,75.06,47.28Z"/><path d="M107.33,59.5a65.57,65.57,0,0,0-11.3.35c0-1.52-.11-3.05-.17-4.57h1.4a3.5,3.5,0,1,0,0-7H95.59l-.21-5.45c3.64,0,7.27.11,10.9.26,4.51.18,4.5-6.83,0-7q-7.22-.29-14.43-.3A3.21,3.21,0,0,0,89.26,37a3.06,3.06,0,0,0-1,2.54l.93,24.34a3.55,3.55,0,0,0,4.43,3.37,59.37,59.37,0,0,1,13.71-.71C111.83,66.77,111.82,59.77,107.33,59.5Z"/><path d="M130,36c-3.38-1.27-6.67-2-10-1.38-2-.58-4.58.48-4.52,3.21q.3,12.69.59,25.39c.1,4.49,7.1,4.51,7,0q-.11-4.14-.19-8.26c3.56.28,7.23.11,10.31-1.91s5.39-6.12,4.48-10S133.37,37.3,130,36ZM128,47.79a13.39,13.39,0,0,1-5.36.22l-.16-6.77a16.29,16.29,0,0,1,4.65,1.2c1.12.38,3.43,1,3.67,2.36S129.16,47.43,128,47.79Z"/></g></svg>