<svg xmlns="http://www.w3.org/2000/svg" viewBox="0 0 200 200"><defs><style>.cls-1{fill:#979dc4;opacity:0;}</style></defs><title>Icon_Set</title><g id="Layer_2" data-name="Layer 2"><rect class="cls-1" width="200" height="200"/></g><g id="Layer_1" data-name="Layer 1"><path d="M188.34,38.42a199.63,199.63,0,0,0-88.59-.35,197.46,197.46,0,0,0-88.1.35,7,7,0,0,0-5.4,6.81v110a7,7,0,0,0,7,7,7.27,7.27,0,0,0,1.6-.18,182,182,0,0,1,63.28-3.53,19,19,0,0,0,15.62,8.21h13a18.94,18.94,0,0,0,15.69-8.32,187.66,187.66,0,0,1,21.86-1.18,184.55,184.55,0,0,1,40.86,4.82,7,7,0,0,0,8.59-6.82v-110A7,7,0,0,0,188.34,38.42ZM20.25,146.6V50.87a183.19,183.19,0,0,1,72.5,0V146.6a196.47,196.47,0,0,0-72.5,0Zm159.5,0a199.61,199.61,0,0,0-35.37-3.38h-1.13a199.26,199.26,0,0,0-36.5,3.38V50.87a185.7,185.7,0,0,1,73,0Z"/><path d="M80.43,71.79a143.39,143.39,0,0,0-23.67-2.06,141.87,141.87,0,0,0-24.69,2.06,4,4,0,1,0,1.36,7.89,134.44,134.44,0,0,1,45.64,0,4,4,0,0,0,1.36-7.89Z"/><path d="M80.43,90.79a143.39,143.39,0,0,0-23.67-2.06,141.87,141.87,0,0,0-24.69,2.06,4,4,0,1,0,1.36,7.89,134.44,134.44,0,0,1,45.64,0,4,4,0,0,0,1.36-7.89Z"/><path d="M80.43,109.79a143.39,143.39,0,0,0-23.67-2.06,140.9,140.9,0,0,0-24.69,2.06,4,4,0,1,0,1.36,7.89,132.88,132.88,0,0,1,23.31-2,134.86,134.86,0,0,1,22.33,2,4,4,0,0,0,1.36-7.89Z"/><path d="M116.81,76.41a4,4,0,0,0,4.62,3.27,134.44,134.44,0,0,1,45.64,0,4,4,0,0,0,1.36-7.89,143.39,143.39,0,0,0-23.67-2.06,141.79,141.79,0,0,0-24.69,2.06A4,4,0,0,0,116.81,76.41Z"/><path d="M168.43,90.79a143.39,143.39,0,0,0-23.67-2.06,141.79,141.79,0,0,0-24.69,2.06,4,4,0,1,0,1.36,7.89,134.44,134.44,0,0,1,45.64,0,4,4,0,0,0,1.36-7.89Z"/><path d="M168.43,109.79a143.39,143.39,0,0,0-23.67-2.06,140.82,140.82,0,0,0-24.69,2.06,4,4,0,1,0,1.36,7.89,133,133,0,0,1,23.31-2,134.86,134.86,0,0,1,22.33,2,4,4,0,0,0,1.36-7.89Z"/></g></svg>