<svg xmlns="http://www.w3.org/2000/svg" viewBox="0 0 200 200"><defs><style>.cls-1{fill:#979dc4;opacity:0;}</style></defs><title>Icon_Set</title><g id="Layer_2" data-name="Layer 2"><rect class="cls-1" width="200" height="200"/></g><g id="Layer_1" data-name="Layer 1"><path d="M177.4,67.3A84.15,84.15,0,1,0,184,100,84.41,84.41,0,0,0,177.4,67.3Zm-12.9,60A70.13,70.13,0,1,1,170,100,70.29,70.29,0,0,1,164.5,127.25Z"/><path d="M131,111a7,7,0,0,0-7,7h0a24,24,0,1,1-48,0,7,7,0,0,0-14,0,38,38,0,1,0,76,0A7,7,0,0,0,131,111Z"/><path d="M71,98.5a19.1,19.1,0,0,0,8.66-2.09A17.83,17.83,0,0,0,86.2,90.7a15.62,15.62,0,0,0,2.74-7.77A11.48,11.48,0,0,0,87,75.5a20.83,20.83,0,0,1-8.57,7.43,18.29,18.29,0,0,1-14.85,0A21.08,21.08,0,0,1,55,75.5a11.45,11.45,0,0,0-2,7.44,15.67,15.67,0,0,0,2.75,7.77,17.75,17.75,0,0,0,6.54,5.71A19,19,0,0,0,71,98.5Z"/><path d="M135.43,82.93a18.29,18.29,0,0,1-14.85,0A21.08,21.08,0,0,1,112,75.5a11.45,11.45,0,0,0-2,7.44,15.67,15.67,0,0,0,2.75,7.77,17.75,17.75,0,0,0,6.54,5.71,19,19,0,0,0,17.33,0,17.83,17.83,0,0,0,6.54-5.71,15.62,15.62,0,0,0,2.74-7.77A11.48,11.48,0,0,0,144,75.5,20.83,20.83,0,0,1,135.43,82.93Z"/></g></svg>