<svg xmlns="http://www.w3.org/2000/svg" viewBox="0 0 200 200"><defs><style>.cls-1{fill:#979dc4;opacity:0;}</style></defs><title>Icon_Set</title><g id="Layer_2" data-name="Layer 2"><rect class="cls-1" width="200" height="200"/></g><g id="Layer_1" data-name="Layer 1"><path d="M186.06,45.2a22.9,22.9,0,0,0-17.47-7.79H42.93c-.65-4.67-1-7.54-1.09-7.84a7,7,0,0,0-6.63-6.15l-22-1a7,7,0,1,0-.64,14l16.19.74C31.48,56.53,40.13,117.93,42.11,132a.68.68,0,0,0,0,.14,20.5,20.5,0,0,0,20.32,17.29h98.44a7,7,0,0,0,0-14H62.45A6.56,6.56,0,0,1,56,129.94c-.21-1.45-.42-3-.64-4.51l.69-.11c.41-.07,41.47-6.75,60.9-9.64,7.11-1.06,12.59-1.82,17.43-2.49,10.83-1.5,18-2.49,30.19-5.1,2.27-.48,7.58-1.62,16.55-20.21,4.62-9.59,8.37-20.12,9.56-26.85l0-.16A19.29,19.29,0,0,0,186.06,45.2Zm-9.22,13.49c-2,11.13-11.82,32-16.11,35.9-11.17,2.36-17.68,3.26-28.31,4.73-4.87.68-10.39,1.44-17.57,2.51-19.52,2.91-60.67,9.61-61,9.66l-.46.07c-2.81-19.91-6.11-43.42-8.47-60.15H168.59a9.08,9.08,0,0,1,6.86,2.91A5.53,5.53,0,0,1,176.84,58.69Z"/><circle cx="61.89" cy="167.41" r="14"/><circle cx="153.89" cy="167.41" r="14"/></g></svg>