<svg xmlns="http://www.w3.org/2000/svg" viewBox="0 0 200 200"><defs><style>.cls-1{fill:#979dc4;opacity:0;}</style></defs><title>Icon_Set</title><g id="Layer_2" data-name="Layer 2"><rect class="cls-1" width="200" height="200"/></g><g id="Layer_1" data-name="Layer 1"><path d="M79.63,35.73h0M66.75,43a109.49,109.49,0,0,0-1.17,39.46c3,18.54,11.2,35,23.77,47.55,15.8,15.79,37.81,24.65,62.12,25a69.78,69.78,0,0,1-44.19,15.61,80.3,80.3,0,0,1-34.82-8.29,57.68,57.68,0,0,1-26.81-26.45c-12.46-25.48-9.19-46.67-4.26-60A70.68,70.68,0,0,1,66.75,43m102,110.93h0M77.1,21.41a8.31,8.31,0,0,0-3.31.7C31.78,40.12,7.2,91,32.34,142.36a72.28,72.28,0,0,0,33.71,33.3,95.08,95.08,0,0,0,41.23,9.75,84.93,84.93,0,0,0,67.19-32.88,8.33,8.33,0,0,0-6.56-13.41,8.73,8.73,0,0,0-1.24.09,98.18,98.18,0,0,1-13.58,1c-20.41,0-39.32-6.75-53.26-20.69C78.37,98,73.93,64.8,84.94,32.5A8.37,8.37,0,0,0,77.1,21.41Z"/><path d="M127,31.78h0m-5.26,14.34a13.48,13.48,0,0,0,3.76,4,13.5,13.5,0,0,0-3.76,4.1,13.41,13.41,0,0,0-3.77-4.1,13.38,13.38,0,0,0,3.77-4m0-20.12A3.9,3.9,0,0,0,118,28.67L114,40.4a4,4,0,0,1-1.84,2.19l-7.45,4.07a4,4,0,0,0,0,7l7.37,4A4,4,0,0,1,113.93,60l4,13.34a4,4,0,0,0,7.58,0l4-13.34a4,4,0,0,1,1.9-2.33l7.37-4a4,4,0,0,0,0-7l-7.45-4.07a4,4,0,0,1-1.85-2.19l-4-11.73A3.89,3.89,0,0,0,121.75,26Z"/><path d="M175.3,53.39h0m-7-4.55a2.11,2.11,0,0,0-2,1.45l-2.2,6.39a2.17,2.17,0,0,1-1,1.19L159,60.08a2.16,2.16,0,0,0,0,3.79l4,2.19a2.13,2.13,0,0,1,1,1.27l2.2,7.26a2.15,2.15,0,0,0,4.12,0l2.2-7.26a2.15,2.15,0,0,1,1-1.27l4-2.19a2.17,2.17,0,0,0,0-3.79l-4.06-2.21a2.17,2.17,0,0,1-1-1.19l-2.2-6.39a2.12,2.12,0,0,0-2-1.45Z"/><path d="M156.25,87.66h0m-6.64-4.79a2.46,2.46,0,0,0-2.37,1.69L144.68,92a2.49,2.49,0,0,1-1.17,1.38L138.79,96a2.51,2.51,0,0,0,0,4.4l4.67,2.56a2.47,2.47,0,0,1,1.2,1.47l2.55,8.45a2.51,2.51,0,0,0,4.8,0l2.55-8.45a2.47,2.47,0,0,1,1.2-1.47l4.67-2.56a2.51,2.51,0,0,0,0-4.4l-4.72-2.58A2.53,2.53,0,0,1,154.54,92L152,84.56a2.46,2.46,0,0,0-2.37-1.69Z"/></g></svg>