<svg xmlns="http://www.w3.org/2000/svg" viewBox="0 0 200 200"><defs><style>.cls-1{fill:#979dc4;opacity:0;}</style></defs><title>Icon_Set</title><g id="Layer_2" data-name="Layer 2"><rect class="cls-1" width="200" height="200"/></g><g id="Layer_1" data-name="Layer 1"><path d="M98.54,121a7.13,7.13,0,1,0,9.39,3.7A7.14,7.14,0,0,0,98.54,121Z"/><path d="M123.54,121a7.13,7.13,0,1,0,9.39,3.7A7.14,7.14,0,0,0,123.54,121Z"/><path d="M148.54,121a7.13,7.13,0,1,0,9.39,3.7A7.14,7.14,0,0,0,148.54,121Z"/><path d="M189.68,150.64c5.38-6.77,8.21-14.39,8.21-22.23,0-23.5-24.64-42.45-58-46.28a33.61,33.61,0,0,0,3-13.72c0-26.35-31-47-70.5-47s-70.5,20.65-70.5,47a35.53,35.53,0,0,0,8.2,22.23L4.17,110.89a9.17,9.17,0,0,0,12.57,10.92l24.6-11.12a98.56,98.56,0,0,0,18.51,4,33.78,33.78,0,0,0-3,13.75c0,26.36,31,47,70.5,47a102.33,102.33,0,0,0,31-4.72L183,181.81a9.16,9.16,0,0,0,12.56-10.92ZM43.32,96.57l-2.94-1L37.63,97l-17.06,7.72L25.74,87,23,84.12c-4.69-4.94-7.07-10.22-7.07-15.71,0-17.89,25.87-33,56.5-33s56.5,15.11,56.5,33a21.41,21.41,0,0,1-4.81,13.06c-22.9.67-42.62,8.3-54.67,19.88A85.71,85.71,0,0,1,43.32,96.57Zm133.5,47.55L174,147l5.17,17.68-17-7.69-2.82-1.51-2.94,1a86.64,86.64,0,0,1-29.06,4.84c-30.63,0-56.5-15.11-56.5-33s25.87-33,56.5-33,56.5,15.11,56.5,33C183.89,133.9,181.51,139.18,176.82,144.12Z"/></g></svg>