<svg xmlns="http://www.w3.org/2000/svg" viewBox="0 0 200 200"><defs><style>.cls-1{fill:#979dc4;opacity:0;}</style></defs><title>Icon_Set</title><g id="Layer_2" data-name="Layer 2"><rect class="cls-1" width="200" height="200"/></g><g id="Layer_1" data-name="Layer 1"><path d="M154,60.41H45.74a7,7,0,0,0-7,7v105a19,19,0,0,0,19,19H142a19,19,0,0,0,19-19v-105A7,7,0,0,0,154,60.41Zm-7,112a5,5,0,0,1-5,5H57.74a5,5,0,0,1-5-5v-98H147Z"/><path d="M127.89,163.41a7,7,0,0,0,7-7v-63a7,7,0,1,0-14,0v63A7,7,0,0,0,127.89,163.41Z"/><path d="M99.89,163.41a7,7,0,0,0,7-7v-63a7,7,0,0,0-14,0v63A7,7,0,0,0,99.89,163.41Z"/><path d="M71.89,163.41a7,7,0,0,0,7-7v-63a7,7,0,0,0-14,0v63A7,7,0,0,0,71.89,163.41Z"/><path d="M162.89,35.41h-32v-8a19,19,0,0,0-19-19h-24a19,19,0,0,0-19,19v8h-32a9,9,0,0,0,0,18h126a9,9,0,0,0,0-18Zm-80-8a5.07,5.07,0,0,1,5-5h24a5.07,5.07,0,0,1,5,5v8h-34Z"/></g></svg>