<svg xmlns="http://www.w3.org/2000/svg" viewBox="0 0 200 200"><defs><style>.cls-1{fill:#979dc4;opacity:0;}</style></defs><title>Icon_Set</title><g id="Layer_2" data-name="Layer 2"><rect class="cls-1" width="200" height="200"/></g><g id="Layer_1" data-name="Layer 1"><rect x="69.62" y="165.71" width="60.75" height="14.7" rx="5.5"/><path d="M185.5,30.53H14.5a12,12,0,0,0-12,12V142a12,12,0,0,0,12,12h171a12,12,0,0,0,12-12V42.53A12,12,0,0,0,185.5,30.53ZM183.5,140H16.5V44.53h167Z"/><path d="M81.69,118.22a14,14,0,0,0,14.13,0l22.49-13a14.14,14.14,0,0,0,0-24.49l-22.49-13A14.14,14.14,0,0,0,74.62,80v26A14,14,0,0,0,81.69,118.22ZM87.62,80a1.07,1.07,0,0,1,.57-1,1.16,1.16,0,0,1,.56-.16,1.14,1.14,0,0,1,.57.17l22.49,13a1.14,1.14,0,0,1,0,2L89.32,107a1.14,1.14,0,0,1-1.7-1Z"/></g></svg>